<svg width="54" height="54" viewBox="0 0 54 54" fill="none" xmlns="http://www.w3.org/2000/svg">
<path d="M53.6666 27C53.6666 12.272 41.728 0.333374 27 0.333374C12.272 0.333374 0.333313 12.272 0.333313 27C0.333313 41.728 12.272 53.6667 27 53.6667C41.728 53.6667 53.6666 41.728 53.6666 27ZM15 18.3174C15.9253 17.2987 17.44 16.3334 19.6666 16.3334C22.7386 16.3334 24.7173 18.4454 25.4133 20.7627C26.088 23.0214 25.68 25.816 23.76 27.744C23.0941 28.3842 22.3877 28.981 21.6453 29.5307L21.5386 29.6134C20.792 30.1894 20.1253 30.712 19.5386 31.2934C18.8586 31.976 18.3013 32.72 17.9786 33.6667H23.6666C24.1971 33.6667 24.7058 33.8774 25.0809 34.2525C25.4559 34.6276 25.6666 35.1363 25.6666 35.6667C25.6666 36.1971 25.4559 36.7058 25.0809 37.0809C24.7058 37.456 24.1971 37.6667 23.6666 37.6667H15.6666C15.1362 37.6667 14.6275 37.456 14.2524 37.0809C13.8774 36.7058 13.6666 36.1971 13.6666 35.6667C13.6666 32.3414 15.064 30.112 16.7173 28.464C17.5066 27.6747 18.3653 27.0107 19.0906 26.448L19.0986 26.4427C19.8613 25.8534 20.4533 25.3947 20.9253 24.9227C21.6506 24.192 21.904 22.9894 21.5813 21.9094C21.2746 20.8934 20.5946 20.3334 19.6666 20.3334C18.7253 20.3334 18.24 20.6987 17.96 21.008C17.7962 21.1888 17.6629 21.3951 17.5653 21.6187V21.6267C17.4019 22.1317 17.0447 22.5511 16.5721 22.7926C16.0995 23.0342 15.5503 23.0781 15.0453 22.9147C14.5403 22.7513 14.121 22.3941 13.8794 21.9215C13.6379 21.4489 13.5939 20.8997 13.7573 20.3947L13.8506 20.1387C14.1246 19.4698 14.5126 18.8536 14.9973 18.3174H15ZM30.3333 16.3334C30.8637 16.3334 31.3725 16.5441 31.7475 16.9192C32.1226 17.2942 32.3333 17.8029 32.3333 18.3334V25.6667H36.3333V18.3334C36.3333 17.8029 36.544 17.2942 36.9191 16.9192C37.2942 16.5441 37.8029 16.3334 38.3333 16.3334C38.8637 16.3334 39.3725 16.5441 39.7475 16.9192C40.1226 17.2942 40.3333 17.8029 40.3333 18.3334V35.5867C40.3333 36.1171 40.1226 36.6259 39.7475 37.0009C39.3725 37.376 38.8637 37.5867 38.3333 37.5867C37.8029 37.5867 37.2942 37.376 36.9191 37.0009C36.544 36.6259 36.3333 36.1171 36.3333 35.5867V29.6667H30.3333C29.8029 29.6667 29.2942 29.456 28.9191 29.0809C28.544 28.7058 28.3333 28.1971 28.3333 27.6667V18.3334C28.3333 17.8029 28.544 17.2942 28.9191 16.9192C29.2942 16.5441 29.8029 16.3334 30.3333 16.3334Z" fill="white"/>
</svg>
