<svg width="64" height="64" viewBox="0 0 64 64" fill="none" xmlns="http://www.w3.org/2000/svg">
<path d="M24 30H12.22C12.5917 27.5247 13.4756 25.1541 14.8152 23.0397C16.1548 20.9252 17.9207 19.1134 20 17.72L23.58 15.32L21.38 12L17.8 14.4C14.7866 16.4082 12.3154 19.1291 10.6059 22.3214C8.89631 25.5138 8.00121 29.0787 8 32.7V46C8 47.0609 8.42143 48.0783 9.17157 48.8284C9.92172 49.5786 10.9391 50 12 50H24C25.0609 50 26.0783 49.5786 26.8284 48.8284C27.5786 48.0783 28 47.0609 28 46V34C28 32.9391 27.5786 31.9217 26.8284 31.1716C26.0783 30.4214 25.0609 30 24 30Z" fill="black"/>
<path d="M52 30H40.22C40.5917 27.5247 41.4756 25.1541 42.8152 23.0397C44.1548 20.9252 45.9207 19.1134 48 17.72L51.58 15.32L49.4 12L45.8 14.4C42.7866 16.4082 40.3154 19.1291 38.6059 22.3214C36.8963 25.5138 36.0012 29.0787 36 32.7V46C36 47.0609 36.4214 48.0783 37.1716 48.8284C37.9217 49.5786 38.9391 50 40 50H52C53.0609 50 54.0783 49.5786 54.8284 48.8284C55.5786 48.0783 56 47.0609 56 46V34C56 32.9391 55.5786 31.9217 54.8284 31.1716C54.0783 30.4214 53.0609 30 52 30Z" fill="black"/>
</svg>
