<svg width="48" height="58" viewBox="0 0 48 58" fill="none" xmlns="http://www.w3.org/2000/svg">
<path d="M46.1813 7.61875L24.9437 0.38125C24.6875 0.29375 24.3438 0.25 24 0.25C23.6562 0.25 23.3125 0.29375 23.0562 0.38125L1.81875 7.61875C1.3 7.79375 0.875 8.39375 0.875 8.94375V39.0937C0.875 39.6437 1.23125 40.3687 1.6625 40.7125L23.2062 57.5C23.425 57.6687 23.7062 57.7562 23.9937 57.7562C24.2812 57.7562 24.5688 57.6687 24.7812 57.5L46.325 40.7125C46.7563 40.375 47.1125 39.65 47.1125 39.0937V8.94375C47.125 8.39375 46.7 7.8 46.1813 7.61875ZM35.4062 18.2937L22.1187 36.5875C22.0253 36.7154 21.9031 36.8194 21.7619 36.8911C21.6207 36.9628 21.4646 37.0001 21.3062 37.0001C21.1479 37.0001 20.9918 36.9628 20.8506 36.8911C20.7094 36.8194 20.5872 36.7154 20.4937 36.5875L12.5938 25.7125C12.3562 25.3812 12.5938 24.9187 13 24.9187H16.45C16.7688 24.9187 17.075 25.075 17.2625 25.3312L21.3062 30.8937L30.7375 17.9062C30.925 17.65 31.225 17.4937 31.55 17.4937H35C35.4062 17.5 35.6437 17.9625 35.4062 18.2937Z" fill="white"/>
</svg>
