<svg width="26" height="24" viewBox="0 0 26 24" fill="none" xmlns="http://www.w3.org/2000/svg">
<path d="M21.0728 4H4.97277C3.8659 4 2.97033 4.9 2.97033 6L2.96027 18C2.96027 19.1 3.8659 20 4.97277 20H21.0728C22.1797 20 23.0854 19.1 23.0854 18V6C23.0854 4.9 22.1797 4 21.0728 4ZM20.6703 8.25L13.5561 12.67C13.2341 12.87 12.8115 12.87 12.4895 12.67L5.37528 8.25C5.27438 8.19371 5.18602 8.11766 5.11555 8.02645C5.04508 7.93525 4.99397 7.83078 4.9653 7.71937C4.93664 7.60796 4.93102 7.49194 4.94878 7.37831C4.96655 7.26468 5.00733 7.15581 5.06865 7.0583C5.12998 6.96079 5.21058 6.87666 5.30557 6.811C5.40056 6.74533 5.50797 6.69951 5.6213 6.6763C5.73463 6.65309 5.85152 6.65297 5.9649 6.67595C6.07827 6.69893 6.18578 6.74453 6.28091 6.81L13.0228 11L19.7647 6.81C19.8598 6.74453 19.9673 6.69893 20.0807 6.67595C20.1941 6.65297 20.311 6.65309 20.4243 6.6763C20.5376 6.69951 20.6451 6.74533 20.7401 6.811C20.835 6.87666 20.9156 6.96079 20.977 7.0583C21.0383 7.15581 21.0791 7.26468 21.0968 7.37831C21.1146 7.49194 21.109 7.60796 21.0803 7.71937C21.0517 7.83078 21.0005 7.93525 20.9301 8.02645C20.8596 8.11766 20.7712 8.19371 20.6703 8.25Z" fill="white"/>
</svg>
