<svg width="36" height="36" viewBox="0 0 36 36" fill="none" xmlns="http://www.w3.org/2000/svg">
<path d="M30.9375 3.9375H5.0625C4.44023 3.9375 3.9375 4.44023 3.9375 5.0625V30.9375C3.9375 31.5598 4.44023 32.0625 5.0625 32.0625H30.9375C31.5598 32.0625 32.0625 31.5598 32.0625 30.9375V5.0625C32.0625 4.44023 31.5598 3.9375 30.9375 3.9375ZM27.6891 12.1465H25.4426C23.6812 12.1465 23.3402 12.9832 23.3402 14.2137V16.9242H27.5449L26.9965 21.1676H23.3402V32.0625H18.9563V21.1711H15.2895V16.9242H18.9563V13.7953C18.9563 10.1637 21.1746 8.18438 24.416 8.18438C25.9699 8.18438 27.3023 8.30039 27.6926 8.35313V12.1465H27.6891Z" fill="white"/>
</svg>
