<svg width="56" height="56" viewBox="0 0 56 56" fill="none" xmlns="http://www.w3.org/2000/svg">
<path d="M49 45.5H43.75C43.276 45.5 42.8659 45.3268 42.5195 44.9805C42.1732 44.6341 42 44.224 42 43.75V26.25C42 25.776 42.1732 25.3659 42.5195 25.0195C42.8659 24.6732 43.276 24.5 43.75 24.5H45.5C45.5 19.1042 43.9961 14.8385 40.9883 11.7031C37.9805 8.56771 33.651 7 28 7C22.349 7 18.0195 8.56771 15.0117 11.7031C12.0039 14.8385 10.5 19.1042 10.5 24.5H12.25C12.724 24.5 13.1341 24.6732 13.4805 25.0195C13.8268 25.3659 14 25.776 14 26.25V43.75C14 44.224 13.8268 44.6341 13.4805 44.9805C13.1341 45.3268 12.724 45.5 12.25 45.5H10.5C10.5 47.4323 11.1836 49.082 12.5508 50.4492C13.918 51.8164 15.5677 52.5 17.5 52.5H21C21 51.5156 21.3372 50.6862 22.0117 50.0117C22.6862 49.3372 23.5156 49 24.5 49H28C28.9844 49 29.8138 49.3372 30.4883 50.0117C31.1628 50.6862 31.5 51.5065 31.5 52.4727C31.5 53.4388 31.1628 54.2682 30.4883 54.9609C29.8138 55.6536 28.9844 56 28 56H17.5C14.5833 56 12.1042 54.9792 10.0625 52.9375C8.02083 50.8958 7 48.4167 7 45.5C5.06771 45.5 3.41797 44.4792 2.05078 42.4375C0.683594 40.3958 0 37.9167 0 35C0 33.1042 0.31901 31.3542 0.957031 29.75C1.59505 28.1458 2.44271 26.888 3.5 25.9766V24.5C3.5 21.1823 4.14714 18.0104 5.44141 14.9844C6.73568 11.9583 8.47656 9.35156 10.6641 7.16406C12.8516 4.97656 15.4583 3.23568 18.4844 1.94141C21.5104 0.647135 24.6823 0 28 0C31.3177 0 34.4896 0.647135 37.5156 1.94141C40.5417 3.23568 43.1484 4.97656 45.3359 7.16406C47.5234 9.35156 49.2643 11.9583 50.5586 14.9844C51.8529 18.0104 52.5 21.1823 52.5 24.5V25.9766C53.5573 26.888 54.4049 28.1458 55.043 29.75C55.681 31.3542 56 33.1042 56 35C56 37.9167 55.3164 40.3958 53.9492 42.4375C52.582 44.4792 50.9323 45.5 49 45.5Z" fill="white"/>
</svg>
