<svg width="36" height="36" viewBox="0 0 36 36" fill="none" xmlns="http://www.w3.org/2000/svg">
<path d="M31.4205 12.4574C31.4054 11.3214 31.1927 10.1966 30.792 9.13344C30.4445 8.23666 29.9138 7.42223 29.2337 6.74218C28.5537 6.06213 27.7393 5.53141 26.8425 5.18394C25.793 4.78997 24.6843 4.57695 23.5635 4.55394C22.1205 4.48944 21.663 4.47144 18 4.47144C14.337 4.47144 13.8675 4.47144 12.435 4.55394C11.3147 4.57712 10.2065 4.79014 9.15748 5.18394C8.26057 5.53117 7.44602 6.0618 6.76593 6.74188C6.08585 7.42197 5.55522 8.23652 5.20798 9.13344C4.81323 10.1821 4.60067 11.2906 4.57948 12.4109C4.51498 13.8554 4.49548 14.3129 4.49548 17.9759C4.49548 21.6389 4.49548 22.1069 4.57948 23.5409C4.60198 24.6629 4.81348 25.7699 5.20798 26.8214C5.5558 27.7181 6.08683 28.5323 6.76714 29.2121C7.44745 29.8919 8.26208 30.4223 9.15898 30.7694C10.2051 31.1792 11.3135 31.4075 12.4365 31.4444C13.881 31.5089 14.3385 31.5284 18.0015 31.5284C21.6645 31.5284 22.134 31.5284 23.5665 31.4444C24.6872 31.4224 25.796 31.2098 26.8455 30.8159C27.742 30.4681 28.5562 29.9372 29.2362 29.2572C29.9162 28.5772 30.4471 27.763 30.795 26.8664C31.1895 25.8164 31.401 24.7094 31.4235 23.5859C31.488 22.1429 31.5075 21.6854 31.5075 18.0209C31.5045 14.3579 31.5045 13.8929 31.4205 12.4574ZM17.991 24.9029C14.16 24.9029 11.0565 21.7994 11.0565 17.9684C11.0565 14.1374 14.16 11.0339 17.991 11.0339C19.8301 11.0339 21.5939 11.7645 22.8944 13.065C24.1949 14.3655 24.9255 16.1293 24.9255 17.9684C24.9255 19.8076 24.1949 21.5714 22.8944 22.8719C21.5939 24.1723 19.8301 24.9029 17.991 24.9029ZM25.2015 12.3944C24.306 12.3944 23.5845 11.6714 23.5845 10.7774C23.5845 10.5652 23.6263 10.355 23.7075 10.1589C23.7887 9.96283 23.9078 9.78466 24.0579 9.63457C24.208 9.48449 24.3861 9.36544 24.5822 9.28422C24.7783 9.20299 24.9885 9.16119 25.2007 9.16119C25.413 9.16119 25.6232 9.20299 25.8192 9.28422C26.0153 9.36544 26.1935 9.48449 26.3436 9.63457C26.4937 9.78466 26.6127 9.96283 26.694 10.1589C26.7752 10.355 26.817 10.5652 26.817 10.7774C26.817 11.6714 26.094 12.3944 25.2015 12.3944Z" fill="white"/>
<path d="M17.9909 22.4729C20.4787 22.4729 22.4954 20.4561 22.4954 17.9684C22.4954 15.4806 20.4787 13.4639 17.9909 13.4639C15.5032 13.4639 13.4865 15.4806 13.4865 17.9684C13.4865 20.4561 15.5032 22.4729 17.9909 22.4729Z" fill="white"/>
</svg>
