<svg width="26" height="24" viewBox="0 0 26 24" fill="none" xmlns="http://www.w3.org/2000/svg">
<path d="M13.0103 1.5C10.8094 1.50258 8.69939 2.3726 7.1431 3.91922C5.58681 5.46584 4.71135 7.56276 4.70875 9.75C4.70611 11.5374 5.29362 13.2763 6.38114 14.7C6.38114 14.7 6.60755 14.9963 6.64453 15.039L13.0103 22.5L19.3792 15.0353C19.4124 14.9955 19.6396 14.7 19.6396 14.7L19.6403 14.6978C20.7273 13.2747 21.3145 11.5366 21.3119 9.75C21.3093 7.56276 20.4339 5.46584 18.8776 3.91922C17.3213 2.3726 15.2113 1.50258 13.0103 1.5ZM13.0103 12.75C12.4133 12.75 11.8296 12.5741 11.3332 12.2444C10.8368 11.9148 10.4499 11.4462 10.2214 10.8981C9.99289 10.3499 9.93311 9.74667 10.0496 9.16473C10.1661 8.58279 10.4536 8.04824 10.8758 7.62868C11.2979 7.20912 11.8358 6.9234 12.4214 6.80764C13.007 6.69189 13.614 6.7513 14.1656 6.97836C14.7172 7.20542 15.1887 7.58994 15.5204 8.08329C15.8521 8.57664 16.0291 9.15666 16.0291 9.75C16.0281 10.5453 15.7097 11.3078 15.1438 11.8702C14.5779 12.4326 13.8107 12.749 13.0103 12.75Z" fill="white"/>
</svg>
