<svg width="15" height="103" viewBox="0 0 15 103" fill="none" xmlns="http://www.w3.org/2000/svg">
<path d="M0.82 5.094C0.82 4.23 0.964 3.462 1.252 2.79C1.54 2.13 1.99 1.488 2.602 0.863999C2.722 0.719999 2.866 0.647999 3.034 0.647999C3.178 0.647999 3.31 0.701999 3.43 0.809999C3.55 0.929999 3.61 1.062 3.61 1.206C3.61 1.35 3.55 1.482 3.43 1.602C2.398 2.538 1.882 3.708 1.882 5.112C1.882 5.976 2.086 6.69 2.494 7.254C2.902 7.83 3.436 8.118 4.096 8.118C4.612 8.118 5.038 7.974 5.374 7.686C5.722 7.41 6.004 7.044 6.22 6.588C6.436 6.132 6.658 5.55 6.886 4.842C7.114 4.074 7.366 3.426 7.642 2.898C7.918 2.382 8.284 1.962 8.74 1.638C9.208 1.314 9.796 1.152 10.504 1.152C11.14 1.152 11.704 1.32 12.196 1.656C12.688 2.004 13.072 2.484 13.348 3.096C13.636 3.72 13.78 4.434 13.78 5.238C13.78 5.97 13.654 6.654 13.402 7.29C13.162 7.938 12.814 8.454 12.358 8.838C12.154 9.018 11.98 9.108 11.836 9.108C11.704 9.108 11.578 9.048 11.458 8.928C11.35 8.808 11.296 8.676 11.296 8.532C11.296 8.412 11.338 8.31 11.422 8.226C11.806 7.902 12.118 7.47 12.358 6.93C12.598 6.39 12.718 5.826 12.718 5.238C12.718 4.362 12.52 3.648 12.124 3.096C11.74 2.544 11.212 2.268 10.54 2.268C9.844 2.268 9.31 2.532 8.938 3.06C8.566 3.588 8.224 4.344 7.912 5.328C7.66 6.18 7.402 6.876 7.138 7.416C6.874 7.956 6.496 8.394 6.004 8.73C5.524 9.078 4.888 9.252 4.096 9.252C3.484 9.252 2.926 9.072 2.422 8.712C1.93 8.364 1.54 7.872 1.252 7.236C0.964 6.612 0.82 5.898 0.82 5.094ZM5.608 20.0254C4.708 20.0254 3.892 19.8274 3.16 19.4314C2.428 19.0354 1.852 18.4894 1.432 17.7934C1.024 17.0974 0.819999 16.3234 0.819999 15.4714C0.819999 14.6194 1.024 13.8454 1.432 13.1494C1.852 12.4534 2.428 11.9074 3.16 11.5114C3.892 11.1154 4.708 10.9174 5.608 10.9174C6.508 10.9174 7.324 11.1154 8.056 11.5114C8.788 11.9074 9.364 12.4534 9.784 13.1494C10.204 13.8454 10.414 14.6194 10.414 15.4714C10.414 16.3234 10.204 17.0974 9.784 17.7934C9.364 18.4894 8.788 19.0354 8.056 19.4314C7.324 19.8274 6.508 20.0254 5.608 20.0254ZM5.608 18.9454C6.328 18.9454 6.976 18.7954 7.552 18.4954C8.128 18.1954 8.578 17.7754 8.902 17.2354C9.238 16.7074 9.406 16.1194 9.406 15.4714C9.406 14.8234 9.238 14.2354 8.902 13.7074C8.578 13.1794 8.128 12.7594 7.552 12.4474C6.976 12.1474 6.328 11.9974 5.608 11.9974C4.9 11.9974 4.258 12.1474 3.682 12.4474C3.106 12.7594 2.65 13.1794 2.314 13.7074C1.99 14.2354 1.828 14.8234 1.828 15.4714C1.828 16.1194 1.99 16.7074 2.314 17.2354C2.638 17.7754 3.088 18.1954 3.664 18.4954C4.24 18.7954 4.888 18.9454 5.608 18.9454ZM10.414 26.2125C10.414 26.7765 10.348 27.2985 10.216 27.7785C10.096 28.2705 9.928 28.6605 9.712 28.9485C9.496 29.2485 9.262 29.3985 9.01 29.3985C8.878 29.3985 8.758 29.3505 8.65 29.2545C8.542 29.1705 8.488 29.0625 8.488 28.9305C8.488 28.8105 8.512 28.7085 8.56 28.6245C8.608 28.5525 8.68 28.4685 8.776 28.3725C8.932 28.2165 9.046 28.0665 9.118 27.9225C9.202 27.7425 9.268 27.5025 9.316 27.2025C9.376 26.9145 9.406 26.6025 9.406 26.2665C9.406 25.6065 9.238 25.0005 8.902 24.4485C8.566 23.9085 8.11 23.4825 7.534 23.1705C6.958 22.8585 6.322 22.7025 5.626 22.7025C4.906 22.7025 4.258 22.8525 3.682 23.1525C3.106 23.4525 2.65 23.8665 2.314 24.3945C1.99 24.9345 1.828 25.5465 1.828 26.2305C1.828 26.6625 1.864 27.0045 1.936 27.2565C2.008 27.5205 2.11 27.7785 2.242 28.0305C2.29 28.1145 2.398 28.2585 2.566 28.4625C2.65 28.5585 2.71 28.6425 2.746 28.7145C2.794 28.7865 2.818 28.8645 2.818 28.9485C2.818 29.0925 2.77 29.2065 2.674 29.2905C2.59 29.3745 2.476 29.4165 2.332 29.4165C2.128 29.4165 1.906 29.2725 1.666 28.9845C1.438 28.6965 1.24 28.3005 1.072 27.7965C0.903999 27.2925 0.819999 26.7345 0.819999 26.1225C0.819999 25.2465 1.024 24.4665 1.432 23.7825C1.852 23.0985 2.428 22.5645 3.16 22.1805C3.892 21.8085 4.714 21.6225 5.626 21.6225C6.502 21.6225 7.3 21.8145 8.02 22.1985C8.752 22.5825 9.334 23.1225 9.766 23.8185C10.198 24.5145 10.414 25.3125 10.414 26.2125ZM1.54 32.5246C1.384 32.5246 1.252 32.4706 1.144 32.3626C1.048 32.2666 0.999999 32.1406 0.999999 31.9846C0.999999 31.8286 1.048 31.6966 1.144 31.5886C1.252 31.4926 1.384 31.4446 1.54 31.4446L9.82 31.4446C9.976 31.4446 10.102 31.4926 10.198 31.5886C10.306 31.6966 10.36 31.8286 10.36 31.9846C10.36 32.1406 10.306 32.2666 10.198 32.3626C10.102 32.4706 9.976 32.5246 9.82 32.5246L1.54 32.5246ZM11.566 31.9846C11.566 31.7446 11.62 31.5586 11.728 31.4266C11.848 31.2946 12.016 31.2286 12.232 31.2286L12.412 31.2286C12.628 31.2286 12.79 31.2946 12.898 31.4266C13.018 31.5706 13.078 31.7626 13.078 32.0026C13.078 32.4826 12.856 32.7226 12.412 32.7226L12.232 32.7226C12.016 32.7226 11.848 32.6566 11.728 32.5246C11.62 32.4046 11.566 32.2246 11.566 31.9846ZM10.198 42.8002C10.198 42.9562 10.144 43.0822 10.036 43.1782C9.928 43.2862 9.796 43.3402 9.64 43.3402L1.54 43.3402C1.384 43.3402 1.252 43.2862 1.144 43.1782C1.048 43.0822 0.999998 42.9562 0.999998 42.8002C0.999998 42.6442 1.048 42.5122 1.144 42.4042C1.252 42.3082 1.384 42.2602 1.54 42.2602L2.746 42.2602C2.206 41.9602 1.75 41.5102 1.378 40.9102C1.006 40.3102 0.819998 39.6562 0.819998 38.9482C0.819998 38.1442 1.03 37.4182 1.45 36.7702C1.87 36.1342 2.446 35.6302 3.178 35.2582C3.91 34.8982 4.732 34.7182 5.644 34.7182C6.556 34.7182 7.372 34.9042 8.092 35.2762C8.824 35.6482 9.394 36.1522 9.802 36.7882C10.21 37.4362 10.414 38.1502 10.414 38.9302C10.414 39.6502 10.24 40.3102 9.892 40.9102C9.544 41.5102 9.088 41.9602 8.524 42.2602L9.64 42.2602C9.796 42.2602 9.928 42.3082 10.036 42.4042C10.144 42.5122 10.198 42.6442 10.198 42.8002ZM1.828 39.0562C1.828 39.6802 1.99 40.2382 2.314 40.7302C2.65 41.2342 3.106 41.6242 3.682 41.9002C4.27 42.1882 4.924 42.3322 5.644 42.3322C6.34 42.3322 6.976 42.1882 7.552 41.9002C8.128 41.6242 8.578 41.2342 8.902 40.7302C9.238 40.2382 9.406 39.6802 9.406 39.0562C9.406 38.4322 9.244 37.8682 8.92 37.3642C8.596 36.8722 8.146 36.4822 7.57 36.1942C7.006 35.9182 6.364 35.7802 5.644 35.7802C4.924 35.7802 4.27 35.9182 3.682 36.1942C3.106 36.4702 2.65 36.8542 2.314 37.3462C1.99 37.8502 1.828 38.4202 1.828 39.0562ZM1.54 47.3463C1.384 47.3463 1.252 47.2923 1.144 47.1843C1.048 47.0883 0.999998 46.9623 0.999998 46.8063C0.999998 46.6503 1.048 46.5183 1.144 46.4103C1.252 46.3143 1.384 46.2663 1.54 46.2663L13.78 46.2663C13.936 46.2663 14.062 46.3143 14.158 46.4103C14.266 46.5183 14.32 46.6503 14.32 46.8063C14.32 46.9623 14.266 47.0883 14.158 47.1843C14.062 47.2923 13.936 47.3463 13.78 47.3463L1.54 47.3463ZM13.6 66.4786C13.6 66.6226 13.546 66.7426 13.438 66.8386C13.342 66.9466 13.216 67.0006 13.06 67.0006L1.54 67.0006C1.384 67.0006 1.252 66.9466 1.144 66.8386C1.048 66.7306 0.999997 66.5986 0.999997 66.4426C0.999997 66.2746 1.048 66.1366 1.144 66.0286C1.252 65.9206 1.384 65.8666 1.54 65.8666L11.44 65.8666L5.032 61.6366C4.876 61.5166 4.804 61.3786 4.816 61.2226L4.816 61.1866C4.816 61.0426 4.888 60.9106 5.032 60.7906L11.476 56.5606L1.54 56.5606C1.384 56.5606 1.252 56.5066 1.144 56.3986C1.048 56.3026 0.999998 56.1766 0.999998 56.0206C0.999998 55.8646 1.048 55.7386 1.144 55.6426C1.252 55.5466 1.384 55.4986 1.54 55.4986L13.06 55.4986C13.204 55.4986 13.33 55.5466 13.438 55.6426C13.546 55.7506 13.6 55.8826 13.6 56.0386C13.6 56.1226 13.576 56.2126 13.528 56.3086C13.492 56.4046 13.438 56.4766 13.366 56.5246L6.292 61.2406L13.366 65.9926C13.546 66.1246 13.624 66.2866 13.6 66.4786ZM6.13 77.8933C5.986 77.8933 5.86 77.8393 5.752 77.7313C5.656 77.6233 5.608 77.4973 5.608 77.3533L5.608 70.5493C4.888 70.5493 4.24 70.6933 3.664 70.9813C3.1 71.2813 2.65 71.7013 2.314 72.2413C1.99 72.7933 1.828 73.4413 1.828 74.1853C1.828 74.7613 1.948 75.2773 2.188 75.7333C2.428 76.1893 2.734 76.5553 3.106 76.8313C3.214 76.9633 3.268 77.0893 3.268 77.2093C3.268 77.3293 3.22 77.4373 3.124 77.5333C3.028 77.6293 2.92 77.6773 2.8 77.6773C2.668 77.6773 2.542 77.6173 2.422 77.4973C1.954 77.1133 1.57 76.6273 1.27 76.0393C0.969997 75.4633 0.819997 74.8513 0.819997 74.2033C0.819997 73.2793 1.018 72.4633 1.414 71.7553C1.81 71.0473 2.362 70.4953 3.07 70.0993C3.79 69.7033 4.618 69.5053 5.554 69.5053C6.538 69.5053 7.396 69.6973 8.128 70.0813C8.872 70.4773 9.436 70.9993 9.82 71.6473C10.216 72.2953 10.414 72.9853 10.414 73.7173C10.414 74.4373 10.246 75.1093 9.91 75.7333C9.574 76.3693 9.082 76.8853 8.434 77.2813C7.786 77.6773 7.018 77.8813 6.13 77.8933ZM9.37 73.7173C9.37 73.0213 9.13 72.3733 8.65 71.7733C8.17 71.1853 7.48 70.8073 6.58 70.6393L6.58 76.7773L6.724 76.7773C7.264 76.7173 7.732 76.5373 8.128 76.2373C8.536 75.9373 8.842 75.5593 9.046 75.1033C9.262 74.6593 9.37 74.1973 9.37 73.7173ZM14.32 87.5893C14.32 87.7453 14.266 87.8713 14.158 87.9673C14.062 88.0753 13.936 88.1293 13.78 88.1293L1.54 88.1293C1.384 88.1293 1.252 88.0753 1.144 87.9673C1.048 87.8713 0.999996 87.7453 0.999996 87.5893C0.999996 87.4333 1.048 87.3013 1.144 87.1933C1.252 87.0973 1.384 87.0493 1.54 87.0493L2.8 87.0493C2.248 86.7493 1.78 86.2993 1.396 85.6993C1.012 85.1113 0.819996 84.4573 0.819996 83.7373C0.819996 82.9453 1.024 82.2253 1.432 81.5773C1.852 80.9413 2.428 80.4373 3.16 80.0653C3.892 79.6933 4.714 79.5073 5.626 79.5073C6.526 79.5073 7.342 79.6933 8.074 80.0653C8.806 80.4373 9.376 80.9413 9.784 81.5773C10.204 82.2253 10.414 82.9393 10.414 83.7193C10.414 84.4273 10.234 85.0813 9.874 85.6813C9.526 86.2813 9.07 86.7373 8.506 87.0493L13.78 87.0493C13.936 87.0493 14.062 87.0973 14.158 87.1933C14.266 87.3013 14.32 87.4333 14.32 87.5893ZM1.828 83.8453C1.828 84.4693 1.99 85.0273 2.314 85.5193C2.638 86.0233 3.088 86.4133 3.664 86.6893C4.252 86.9773 4.906 87.1213 5.626 87.1213C6.334 87.1213 6.976 86.9773 7.552 86.6893C8.128 86.4133 8.578 86.0233 8.902 85.5193C9.238 85.0273 9.406 84.4693 9.406 83.8453C9.406 83.2213 9.238 82.6573 8.902 82.1533C8.578 81.6613 8.128 81.2713 7.552 80.9833C6.976 80.7073 6.334 80.5693 5.626 80.5693C4.906 80.5693 4.258 80.7073 3.682 80.9833C3.106 81.2713 2.65 81.6613 2.314 82.1533C1.99 82.6573 1.828 83.2213 1.828 83.8453ZM1.54 91.9914C1.384 91.9914 1.252 91.9374 1.144 91.8294C1.048 91.7334 0.999996 91.6074 0.999996 91.4514C0.999996 91.2954 1.048 91.1634 1.144 91.0554C1.252 90.9594 1.384 90.9114 1.54 90.9114L9.82 90.9114C9.976 90.9114 10.102 90.9594 10.198 91.0554C10.306 91.1634 10.36 91.2954 10.36 91.4514C10.36 91.6074 10.306 91.7334 10.198 91.8294C10.102 91.9374 9.976 91.9914 9.82 91.9914L1.54 91.9914ZM11.566 91.4514C11.566 91.2114 11.62 91.0254 11.728 90.8934C11.848 90.7614 12.016 90.6954 12.232 90.6954L12.412 90.6954C12.628 90.6954 12.79 90.7614 12.898 90.8934C13.018 91.0374 13.078 91.2294 13.078 91.4694C13.078 91.9494 12.856 92.1894 12.412 92.1894L12.232 92.1894C12.016 92.1894 11.848 92.1234 11.728 91.9914C11.62 91.8714 11.566 91.6914 11.566 91.4514ZM10.198 102.267C10.198 102.423 10.144 102.549 10.036 102.645C9.928 102.753 9.796 102.807 9.64 102.807L1.54 102.807C1.384 102.807 1.252 102.753 1.144 102.645C1.048 102.549 0.999996 102.423 0.999996 102.267C0.999996 102.111 1.048 101.979 1.144 101.871C1.252 101.775 1.384 101.727 1.54 101.727L2.746 101.727C2.206 101.427 1.75 100.977 1.378 100.377C1.006 99.777 0.819996 99.123 0.819996 98.415C0.819996 97.611 1.03 96.885 1.45 96.237C1.87 95.601 2.446 95.097 3.178 94.725C3.91 94.365 4.732 94.185 5.644 94.185C6.556 94.185 7.372 94.371 8.092 94.743C8.824 95.115 9.394 95.619 9.802 96.255C10.21 96.903 10.414 97.617 10.414 98.397C10.414 99.117 10.24 99.777 9.892 100.377C9.544 100.977 9.088 101.427 8.524 101.727L9.64 101.727C9.796 101.727 9.928 101.775 10.036 101.871C10.144 101.979 10.198 102.111 10.198 102.267ZM1.828 98.523C1.828 99.147 1.99 99.705 2.314 100.197C2.65 100.701 3.106 101.091 3.682 101.367C4.27 101.655 4.924 101.799 5.644 101.799C6.34 101.799 6.976 101.655 7.552 101.367C8.128 101.091 8.578 100.701 8.902 100.197C9.238 99.705 9.406 99.147 9.406 98.523C9.406 97.899 9.244 97.335 8.92 96.831C8.596 96.339 8.146 95.949 7.57 95.661C7.006 95.385 6.364 95.247 5.644 95.247C4.924 95.247 4.27 95.385 3.682 95.661C3.106 95.937 2.65 96.321 2.314 96.813C1.99 97.317 1.828 97.887 1.828 98.523Z" fill="white"/>
</svg>
