<svg width="36" height="36" viewBox="0 0 36 36" fill="none" xmlns="http://www.w3.org/2000/svg">
<path d="M35.4644 7.78428C34.2119 8.33928 32.8664 8.71428 31.4519 8.88378C32.9114 8.01047 34.0033 6.63598 34.5239 5.01678C33.1527 5.83126 31.6519 6.40457 30.0869 6.71178C29.0345 5.58808 27.6405 4.84327 26.1214 4.59299C24.6023 4.34271 23.043 4.60096 21.6858 5.32766C20.3285 6.05435 19.2491 7.20882 18.6151 8.61183C17.9812 10.0148 17.8282 11.5879 18.1799 13.0868C15.4014 12.9473 12.6833 12.2251 10.202 10.9671C7.72073 9.70917 5.53166 7.94352 3.7769 5.78478C3.1769 6.81978 2.8319 8.01978 2.8319 9.29778C2.83123 10.4483 3.11454 11.5811 3.65671 12.5959C4.19888 13.6106 4.98314 14.4758 5.9399 15.1148C4.83031 15.0795 3.74521 14.7797 2.7749 14.2403V14.3303C2.77478 15.9439 3.33294 17.5078 4.35467 18.7568C5.3764 20.0057 6.79875 20.8627 8.3804 21.1823C7.35107 21.4609 6.2719 21.5019 5.2244 21.3023C5.67064 22.6907 6.53989 23.9048 7.71045 24.7747C8.881 25.6445 10.2943 26.1265 11.7524 26.1533C9.27715 28.0964 6.22023 29.1504 3.0734 29.1458C2.51597 29.1459 1.95901 29.1134 1.4054 29.0483C4.59961 31.102 8.31791 32.192 12.1154 32.1878C24.9704 32.1878 31.9979 21.5408 31.9979 12.3068C31.9979 12.0068 31.9904 11.7038 31.9769 11.4038C33.3438 10.4152 34.5238 9.19112 35.4614 7.78878L35.4644 7.78428Z" fill="white"/>
</svg>
