<svg width="26" height="24" viewBox="0 0 26 24" fill="none" xmlns="http://www.w3.org/2000/svg">
<path d="M21.2214 6.84C18.3234 2.4 12.4066 1.08 7.81809 3.84C3.35032 6.6 1.90132 12.6 4.79933 17.04L5.04083 17.4L4.07483 21L7.69734 20.04L8.05959 20.28C9.62935 21.12 11.3199 21.6 13.0104 21.6C14.8216 21.6 16.6329 21.12 18.2026 20.16C22.6704 17.28 23.9987 11.4 21.2214 6.84ZM18.6856 16.08C18.2026 16.8 17.5989 17.28 16.7536 17.4C16.2706 17.4 15.6669 17.64 13.2519 16.68C11.1991 15.72 9.5086 14.16 8.3011 12.36C7.57659 11.52 7.21434 10.44 7.09359 9.36C7.09359 8.4 7.45584 7.56 8.05959 6.96C8.3011 6.72 8.5426 6.6 8.7841 6.6H9.38785C9.62935 6.6 9.87085 6.6 9.9916 7.08C10.2331 7.68 10.8369 9.12 10.8369 9.24C10.9576 9.36 10.9576 9.6 10.8369 9.72C10.9576 9.96 10.8369 10.2 10.7161 10.32C10.5954 10.44 10.4746 10.68 10.3539 10.8C10.1124 10.92 9.9916 11.16 10.1124 11.4C10.5954 12.12 11.1991 12.84 11.8029 13.44C12.5274 14.04 13.2519 14.52 14.0971 14.88C14.3386 15 14.5801 15 14.7009 14.76C14.8216 14.52 15.4254 13.92 15.6669 13.68C15.9084 13.44 16.0291 13.44 16.2706 13.56L18.2026 14.52C18.4441 14.64 18.6856 14.76 18.8064 14.88C18.9271 15.24 18.9271 15.72 18.6856 16.08Z" fill="white"/>
</svg>
